<?xml version="1.0" encoding="utf-8"?>
<!-- Generator: visioncortex VTracer 0.6.4 --><svg height="250" version="1.1" width="250" xmlns="http://www.w3.org/2000/svg">

<path d="M0 0 C1.0359019934804792 5.050022218217293 1.1025167221878007 9.874163890610099 1 15 C2.1756249999999966 15.123750000000001 3.351249999999993 15.247500000000002 4.5625 15.375 C8.541204256900556 15.864359347105413 12.177665586570242 16.8055204958032 16 18 C14.951250024694218 20.621874938264448 14.350686867914845 21.79371360710892 11.875 23.25 C11.256249999999994 23.497500000000002 10.637499999999989 23.745000000000005 10 24 C10 24.659999999999997 10 25.32 10 26 C8.548828125 27.427734375000014 8.548828125 27.427734375000014 6.53125 29.09375 C1.9379117770504308 32.999704862120836 -2.277407471310994 37.20049321760081 -6.5 41.5 C-11.272775881163 46.359711689563056 -16.098996899635154 51.04732125503094 -21.263671875 55.49072265625 C-23.261377975900302 57.22719890987284 -25.147976983050597 59.04689317019748 -27 60.9375 C-27.866250000000008 61.817285156249994 -27.866250000000008 61.817285156249994 -28.75 62.71484375 C-29.162499999999994 63.1389453125 -29.57499999999999 63.563046875 -30 64 C-30.577499999999986 63.67 -31.155 63.34 -31.75 63 C-34.19883862400533 61.729241022631044 -34.19883862400533 61.729241022631044 -38 62 C-41.44159198855186 63.70203963719547 -43.7983372280097 65.86187483042686 -46 69 C-47.10614581727032 73.65795662603179 -47.075035533564346 78.16774124976047 -47 82.9375 C-47.011601562500005 84.19369140625 -47.02320312500001 85.4498828125 -47.03515625 86.744140625 C-47.05863115904424 89.83109116431926 -47.0458354281472 92.91342953650438 -47 96 C-46.00999999999999 96 -45.01999999999998 96 -44 96 C-42.42187499999997 98.27343750000006 -42.42187499999997 98.27343750000006 -40.75 101.375 C-38.5293063526519 105.3518070337447 -36.27848181757909 109.172467231285 -33.625 112.875 C-32.416352663470036 114.58311119021016 -31.20805275646802 116.29146824442381 -30 118 C-29.603935546874993 118.55510253906249 -29.207871093749986 119.110205078125 -28.7998046875 119.68212890625 C-27.512490279524286 121.50377236267775 -26.25469631463048 123.34327698444628 -25 125.1875 C-24.589594726562495 125.7577490234375 -24.17918945312499 126.327998046875 -23.75634765625 126.91552734375 C-21.728905265174518 129.94400300862367 -21.002486980501004 131.93809435023164 -20.85546875 135.59765625 C-22.309909329726963 139.92126630099716 -24.67774677535357 141.7715797773312 -28.3125 144.25 C-28.894511718749982 144.670234375 -29.47652343750002 145.09046875 -30.076171875 145.5234375 C-32.475023484546796 147.2512626683712 -34.810968552021734 148.90108466767109 -37.43359375 150.2734375 C-39.40533487769514 152.07812838474644 -39.40533487769514 152.07812838474644 -39.171875 155.7734375 C-39.05082621862846 157.3089605990624 -38.9090168078705 158.8429433267531 -38.75 160.375 C-38.61811520077828 161.99455187148362 -38.48923269377016 163.61435089570276 -38.36328125 165.234375 C-38.26394287109375 166.438037109375 -38.26394287109375 166.438037109375 -38.16259765625 167.666015625 C-37.806894228770915 172.77190866809318 -37.91866706766652 177.88506225547204 -38 183 C-41.552315176105935 184.77615758805297 -45.64641332374373 184.68243407527348 -49.5625 185.0625 C-50.86670898437501 185.198818359375 -50.86670898437501 185.198818359375 -52.197265625 185.337890625 C-57.82744147915943 185.8962898707891 -63.3426494465492 186.08615254649925 -69 186 C-69.338935813309 182.167140749495 -69.67012786864096 178.33364909417264 -70 174.5 C-70.095390625 173.42234375 -70.19078125 172.3446875 -70.2890625 171.234375 C-70.78162325731341 165.46437755718583 -71.11244202854283 159.79076446995586 -71 154 C-71.6638671875 153.7589453125 -72.327734375 153.517890625 -73.01171875 153.26953125 C-76.78181824397981 151.66785499438765 -80.27096647562584 149.73786151411136 -83.8125 147.6875 C-84.50537109375 147.30916015625 -85.1982421875 146.9308203125 -85.912109375 146.541015625 C-87.89453125 145.38671875 -87.89453125 145.38671875 -91 143 C-91.44921875 140.20703125 -91.44921875 140.20703125 -91 138 C-91.66 138 -92.32 138 -93 138 C-92.41448912252037 134.26954208259266 -91.36908308347105 131.47725944191777 -89.5234375 128.19140625 C-89.020380859375 127.28535644531252 -88.51732421874999 126.379306640625 -87.9990234375 125.44580078125 C-87.1951318359375 124.01856689453126 -87.1951318359375 124.01856689453126 -86.375 122.5625 C-81.69774824018751 114.13703963814598 -77.2028223370299 105.67202073767436 -73 97 C-72.34 97 -71.68 97 -71 97 C-71.10828125 95.9442578125 -71.10828125 95.9442578125 -71.21875 94.8671875 C-71.96834863628047 86.89229089734953 -72.10659683316534 79.00660657997479 -72 71 C-72.59296875 70.71125 -73.1859375 70.4225 -73.796875 70.125 C-76.71292884062134 68.63595123032101 -79.35306944254718 66.92504040542023 -82 65 C-82 64.34 -82 63.68000000000001 -82 63 C-84.43717258183901 63.27034633849138 -84.43717258183901 63.27034633849138 -87 64 C-87.66 64.99 -88.32 65.98 -89 67 C-92.27441775573025 65.51978375425892 -94.84723952309153 63.64606801206523 -97.625 61.375 C-98.50929687499999 60.65699218750001 -99.39359375000001 59.93898437499999 -100.3046875 59.19921875 C-101.194140625 58.4734765625 -102.08359375 57.74773437499999 -103 57 C-108.55613854855406 52.52776388960649 -114.14121056490035 48.09341077347325 -119.75 43.6875 C-120.3324951171875 43.228916015625 -120.914990234375 42.77033203125001 -121.51513671875 42.2978515625 C-124.66542440675292 39.82059941602677 -127.82759215850162 37.360609163960476 -131.0078125 34.921875 C-131.655244140625 34.42212158203125 -132.30267578125 33.9223681640625 -132.9697265625 33.407470703125 C-134.22036361123992 32.44256992525941 -135.47481831493693 31.482593125048496 -136.7333984375 30.528076171875 C-138.192650271596 29.398353141419854 -139.60198330293875 28.204673962361284 -141 27 C-141 26.340000000000003 -141 25.68 -141 25 C-140.39671875 24.7692578125 -139.7934375 24.538515625000002 -139.171875 24.30078125 C-132.4484775681569 21.56139892373313 -132.4484775681569 21.56139892373313 -128 16 C-127.1210429960692 12.692479713532066 -126.4994242782875 9.38425662260606 -126 6 C-122.57881056100678 7.521404520105278 -119.98533267085523 9.533603393642942 -117.125 11.9375 C-112.9034593193897 15.443335770520079 -108.63996488226684 18.87603395616786 -104.3125 22.25 C-98.33651063291438 26.915019713595342 -92.44497369225539 31.67738561902258 -86.593017578125 36.4970703125 C-82.50690020374289 39.84402484434722 -78.32883265591624 42.972609936120506 -74 46 C-75.12451727170766 48.971938503798825 -76.22293791420942 51.334406871314144 -78 54 C-77.4676171875 54.24234375 -76.935234375 54.48468750000001 -76.38671875 54.734375 C-73.34263225395986 56.34858780641082 -70.61385595346066 58.243669548556795 -67.8125 60.25 C-66.7464453125 60.997656250000006 -65.680390625 61.7453125 -64.58203125 62.515625 C-61.48845502976003 65.49219758104783 -61.22939803919044 66.78220423397585 -61 71 C-60.843378906249995 72.72669921875 -60.843378906249995 72.72669921875 -60.68359375 74.48828125 C-60.04963081070602 84.33986406855257 -59.89005705967354 94.12956713513543 -60 104 C-59.34 104 -58.68000000000001 104 -58 104 C-58.068078613281244 102.88665283203125 -58.1361572265625 101.77330566406249 -58.206298828125 100.626220703125 C-58.44426153728617 96.43607234383931 -58.59173730015995 92.24649535051716 -58.714111328125 88.051513671875 C-58.77890456404853 86.2477535879394 -58.86719143402415 84.44466045256019 -58.980712890625 82.643310546875 C-59.948613201215636 66.8722290154864 -59.948613201215636 66.8722290154864 -55.04833984375 60.82958984375 C-51.95299821548906 57.54133542574081 -48.59795008161683 54.72178636388375 -45 52 C-45.495000000000005 51.13374999999999 -45.495000000000005 51.13374999999999 -46 50.25 C-47 48 -47 48 -47 44 C-45.28759765625 41.8017578125 -45.28759765625 41.8017578125 -42.9140625 39.453125 C-42.065859375 38.608789062499994 -41.217656250000005 37.764453125 -40.34375 36.89453125 C-38.997968749999984 35.58548828125001 -38.997968749999984 35.58548828125001 -37.625 34.25 C-36.73554687500001 33.3618359375 -35.846093749999994 32.473671875 -34.9296875 31.55859375 C-28.280421947004612 25 -28.280421947004612 25 -26 25 C-26 24.340000000000003 -26 23.68 -26 23 C-24.54443359375 21.570068359374986 -24.54443359375 21.570068359374986 -22.5234375 19.90234375 C-17.181365056638413 15.36193532909968 -12.35277682362971 10.371961610544219 -7.47265625 5.345703125 C-6.793320312499986 4.655410156249999 -6.113984375000001 3.965117187499999 -5.4140625 3.25390625 C-4.500681152343759 2.315267333984373 -4.500681152343759 2.315267333984373 -3.56884765625 1.357666015625 C-2 0 -2 0 0 0 Z " fill="#88C341" transform="translate(183,30)"/>
<path d="M0 0 C1.0359019934804792 5.050022218217293 1.1025167221878007 9.874163890610099 1 15 C2.1756249999999966 15.123750000000001 3.351249999999993 15.247500000000002 4.5625 15.375 C8.541204256900556 15.864359347105413 12.177665586570242 16.8055204958032 16 18 C14.951250024694218 20.621874938264448 14.350686867914845 21.79371360710892 11.875 23.25 C11.256249999999994 23.497500000000002 10.637499999999989 23.745000000000005 10 24 C10 24.659999999999997 10 25.32 10 26 C8.548828125 27.427734375000014 8.548828125 27.427734375000014 6.53125 29.09375 C1.9379117770504308 32.999704862120836 -2.277407471310994 37.20049321760081 -6.5 41.5 C-11.272775881163 46.359711689563056 -16.098996899635154 51.04732125503094 -21.263671875 55.49072265625 C-23.261377975900302 57.22719890987284 -25.147976983050597 59.04689317019748 -27 60.9375 C-27.866250000000008 61.817285156249994 -27.866250000000008 61.817285156249994 -28.75 62.71484375 C-29.162499999999994 63.1389453125 -29.57499999999999 63.563046875 -30 64 C-30.577499999999986 63.67 -31.155 63.34 -31.75 63 C-34.19883862400533 61.729241022631044 -34.19883862400533 61.729241022631044 -38 62 C-41.44159198855186 63.70203963719547 -43.7983372280097 65.86187483042686 -46 69 C-47.10614581727032 73.65795662603179 -47.075035533564346 78.16774124976047 -47 82.9375 C-47.011601562500005 84.19369140625 -47.02320312500001 85.4498828125 -47.03515625 86.744140625 C-47.05863115904424 89.83109116431926 -47.0458354281472 92.91342953650438 -47 96 C-46.00999999999999 96 -45.01999999999998 96 -44 96 C-42.140625 98.5546875 -42.140625 98.5546875 -40.25 101.875 C-39.61578125 102.965546875 -38.981562499999995 104.05609375 -38.328125 105.1796875 C-37.88984375000001 106.11039062499998 -37.451562499999994 107.04109375000002 -37 108 C-37.329999999999984 108.66 -37.66 109.32 -38 110 C-38.458906249999984 109.2897265625 -38.9178125 108.57945312499999 -39.390625 107.84765625 C-40.00421875000001 106.9285546875 -40.617812500000014 106.009453125 -41.25 105.0625 C-41.85328125000001 104.14597656249998 -42.45656250000002 103.22945312500002 -43.078125 102.28515625 C-45.17880674282159 99.78739442164505 -45.93325343166117 99.58268184798436 -49 99 C-51.08641975308643 70.91358024691358 -51.08641975308643 70.91358024691358 -46.328125 64.3359375 C-43.54917606818225 61.355979603855474 -40.488665466678015 59.08696952024488 -37 57 C-34.506384291223185 58.20381448009914 -32.318569172207845 59.45428721852811 -30 61 C-29.340000000000003 60.154375 -28.680000000000007 59.30875 -28 58.4375 C-25.973089264936675 56.00407791974291 -23.8497435698701 53.92465163452428 -21.4375 51.875 C-17.204772931287607 48.274381510547116 -13.339194308896651 44.37216650745589 -9.441162109375 40.419189453125 C-5.968280264943587 36.91647849789362 -2.365723616703889 33.64740336099382 1.39453125 30.453125 C3.5388873984072404 28.512247902171552 5.219152454483378 26.27211583393502 7 24 C8.633569507557866 22.626316550462704 10.292500203351238 21.28062484748657 12 20 C8.039999999999992 19.010000000000005 4.0800000000000125 18.019999999999996 0 17 C-1.170766990560736 13.019392232093516 -2.2574940306821816 9.083782831248072 -3 5 C-3.7837499999999977 5.825000000000003 -4.5674999999999955 6.649999999999999 -5.375 7.5 C-8 10 -8 10 -10 10 C-10.248789062500009 10.586523437499999 -10.49757812499999 11.173046874999997 -10.75390625 11.77734375 C-12.188699462730284 14.336583054211701 -13.692630604270562 15.672706607110008 -15.9375 17.5625 C-22.400527313167913 23.209344715616595 -28.37676780873244 29.324641271968495 -34.398193359375 35.435791015625 C-35.192336425781264 36.23815185546874 -35.9864794921875 37.0405126953125 -36.8046875 37.8671875 C-37.516088867187506 38.59019042968751 -38.22749023437501 39.31319335937499 -38.96044921875 40.05810546875 C-40.87932555588753 41.88510359965639 -42.84636397646159 43.46116987697155 -45 45 C-43.69104280066756 48.121974776332536 -43.69104280066756 48.121974776332536 -41 50 C-42.31866086360873 53.56038433174356 -44.47561098331266 55.378448554017865 -47.41015625 57.703125 C-49.777291905140345 59.63405629608501 -51.87183471576523 61.81271901342538 -54 64 C-54.66 64.66 -55.31999999999999 65.32 -56 66 C-56.24973218547808 69.04067854924517 -56.37673978564396 71.98638328556746 -56.40625 75.03125 C-56.42335021972656 76.38978088378906 -56.42335021972656 76.38978088378906 -56.4407958984375 77.7757568359375 C-56.45971771992957 79.69908975677154 -56.472772542205846 81.62248783960932 -56.48046875 83.5458984375 C-56.499745309715934 86.46147809453504 -56.56169692498072 89.37415371747183 -56.625 92.2890625 C-56.742951230901056 102.40388449844204 -56.729623853196415 109.91985385346356 -50 118 C-48.92794441781572 119.58210701887725 -47.86937689906151 121.17343430190212 -46.82421875 122.7734375 C-45.24356516149794 125.10012808730937 -43.6555530000532 127.4214056061652 -42.060546875 129.73828125 C-41.549433593749995 130.4923828125 -41.03832031249999 131.246484375 -40.51171875 132.0234375 C-40.05240966796873 132.6929443359375 -39.59310058593752 133.362451171875 -39.119873046875 134.05224609375 C-37.97751406194163 136.0391089631196 -37.43854302942225 137.760777442651 -37 140 C-37.701250000000016 140.3983203125 -38.4025 140.796640625 -39.125 141.20703125 C-43.36308046653073 143.85007328007828 -47.165196328091696 147.01987002259375 -51.0625 150.13671875 C-54.264452185198536 152.16774427172834 -55.32766122084308 152.77576761444197 -59 152 C-61.50534404012157 150.6195043044228 -63.77990446870541 149.23447609095166 -66.125 147.625 C-66.7450390625 147.2125 -67.365078125 146.8 -68.00390625 146.375 C-69.67611293944199 145.260195540372 -71.33854651003219 144.1307681000518 -73 143 C-74.485 142.01 -74.485 142.01 -76 141 C-75.41627073552768 136.52196264254803 -73.68191552510588 133.41478171663434 -71.375 129.5625 C-68.41757135796712 124.5354109853036 -65.61437123405912 119.46442275087378 -63 114.25 C-62.4225 113.10015625 -61.845 111.9503125 -61.25 110.765625 C-59.862712472044976 108.20208348719396 -59.862712472044976 108.20208348719396 -60 106 C-60.66 105.67000000000002 -61.31999999999999 105.34 -62 105 C-62.055349121093755 103.99622314453126 -62.110698242187496 102.99244628906251 -62.167724609375 101.958251953125 C-62.37472870290773 98.22139061263033 -62.58644543262163 94.484808409577 -62.799560546875 90.748291015625 C-62.89100916427002 89.13345410279291 -62.98119287023994 87.51854502641358 -63.070068359375 85.903564453125 C-63.19830286058698 83.57743358477136 -63.33113800433867 81.25160327004703 -63.46484375 78.92578125 C-63.50343002319336 78.20787918090821 -63.54201629638672 77.4899771118164 -63.58177185058594 76.75032043457031 C-63.62228689024775 70.13780052336507 -63.62228689024775 70.13780052336507 -66.3828125 64.47021484375 C-66.957734375 64.0546533203125 -67.53265625 63.63909179687499 -68.125 63.2109375 C-68.74890625 62.744296875 -69.3728125 62.27765625000001 -70.015625 61.796875 C-70.67046875 61.32765624999999 -71.3253125 60.85843750000001 -72 60.375 C-73.29631746784156 59.430831765548476 -74.58821198171077 58.48055255492588 -75.875 57.5234375 C-76.449921875 57.110131835937494 -77.02484375 56.696826171875 -77.6171875 56.27099609375 C-79 55 -79 55 -80 52 C-78.56249999999997 49.31249999999994 -78.56249999999997 49.31249999999994 -77 47 C-77.894609375 46.29875 -78.78921875 45.5975 -79.7109375 44.875 C-90.67200557990208 36.27665103954348 -90.67200557990208 36.27665103954348 -96 32 C-105.25805502344832 24.572202971302573 -114.61895059403875 17.271554169171026 -124 10 C-124.2475 11.216875000000002 -124.495 12.433750000000003 -124.75 13.6875 C-126.47113996641156 20.464488617745488 -130.2835993744092 23.28277773527155 -136 27 C-128.94144796749208 33.06191262592457 -121.81924205609795 39.006564440878606 -114.466796875 44.709716796875 C-111.16904930432766 47.274072392549044 -107.91555287689116 49.8808260114817 -104.69921875 52.546875 C-103.61894409179688 53.43947021484375 -103.61894409179688 53.43947021484375 -102.516845703125 54.35009765625 C-101.11616667766205 55.510810811968184 -99.71996108770685 56.676949027397 -98.328857421875 57.84912109375 C-97.69181884765625 58.37586425781251 -97.0547802734375 58.90260742187499 -96.3984375 59.4453125 C-95.8381787109375 59.91469238281249 -95.277919921875 60.38407226562501 -94.70068359375 60.86767578125 C-92.78374705843919 62.14398236333031 -91.28105379830687 62.70102980323256 -89 63 C-88.505 62.504999999999995 -88.00999999999999 62.00999999999999 -87.5 61.5 C-87.005 61.004999999999995 -86.50999999999999 60.50999999999999 -86 60 C-82.9582903981628 60.285160275172245 -81.60954197751434 61.26030534832377 -79 63 C-79 63.66 -79 64.32 -79 65 C-77.88625 65.37125 -77.88625 65.37125 -76.75 65.75 C-73.63845763154883 67.16433744020507 -72.12920212938849 68.32707697100838 -70 71 C-69.4541015625 74.11621093750001 -69.4541015625 74.11621093750001 -69.390625 77.734375 C-69.34228515625 79.67763671875 -69.34228515625 79.67763671875 -69.29296875 81.66015625 C-69.27822530983748 83.023433017027 -69.26390777664966 84.38671445166757 -69.25 85.75 C-69.22183186036641 87.128943755166 -69.19190322419178 88.50785274721677 -69.16015625 89.88671875 C-69.08943275190656 93.25787215912047 -69.03674496385449 96.62833279942032 -69 100 C-70.485 100.495 -70.485 100.495 -72 101 C-73.65729854748496 103.40774418277596 -73.65729854748496 103.40774418277596 -75.125 106.3125 C-75.643203125 107.2780078125 -76.16140625 108.24351562499999 -76.6953125 109.23828125 C-77.78164400951883 111.53779136146653 -78.51677110525449 113.51903213795299 -79 116 C-79.66 116 -80.32 116 -81 116 C-81.244921875 116.827578125 -81.48984375 117.65515625 -81.7421875 118.5078125 C-83.19193489156635 122.53288755608793 -85.07230509948758 126.13227714252861 -87.125 129.875 C-87.49753906250001 130.563359375 -87.87007812499999 131.25171875 -88.25390625 131.9609375 C-89.16499525739872 133.64294797519761 -90.08190315068138 135.32180436380364 -91 137 C-90.00999999999999 137.33 -89.02000000000001 137.66 -88 138 C-88.33 139.32 -88.66 140.64 -89 142 C-88.280703125 142.2668359375 -87.56140625 142.533671875 -86.8203125 142.80859375 C-83.97518444595156 144.01048302490966 -81.49484649606467 145.43210623257139 -78.875 147.0625 C-76.19748052187184 148.72679402211918 -74.00027597639439 149.99990800786853 -71 151 C-71 151.66 -71 152.32 -71 153 C-69.02 153.66 -67.04 154.32 -65 155 C-65 155.66 -65 156.32 -65 157 C-66.32 157 -67.64 157 -69 157 C-68.855625 158.1949609375 -68.71125 159.389921875 -68.5625 160.62109375 C-68.37472957376751 162.22653089428783 -68.18724490247178 163.83200147813056 -68 165.4375 C-67.904609375 166.22060546875 -67.80921875 167.0037109375 -67.7109375 167.810546875 C-67.08488869029644 173.24375618778453 -66.9124042863526 178.53074262914024 -67 184 C-66.05640625 183.8672265625 -65.1128125 183.734453125 -64.140625 183.59765625 C-62.214765625 183.33275390625 -62.214765625 183.33275390625 -60.25 183.0625 C-58.997031250000006 182.8884765625 -57.7440625 182.714453125 -56.453125 182.53515625 C-50.98427816643198 181.87793518315894 -45.48916954440074 181.45743079536672 -40 181 C-40.66 172.09 -41.31999999999999 163.18 -42 154 C-42.99000000000001 153.67 -43.98000000000002 153.34 -45 153 C-42.39682212995592 151.0403495230144 -39.792287578942705 149.08251018400335 -37.1875 147.125 C-36.44951171874999 146.5694140625 -35.711523437500006 146.013828125 -34.951171875 145.44140625 C-34.23896484375001 144.9064453125 -33.526757812499994 144.371484375 -32.79296875 143.8203125 C-32.13836669921875 143.3280517578125 -31.4837646484375 142.835791015625 -30.809326171875 142.32861328125 C-29.23787519226508 141.17467505010208 -27.62218477093265 140.0814565139551 -26 139 C-25.749690229031273 136.41619822547113 -25.749690229031273 136.41619822547113 -26 134 C-25.340000000000003 134 -24.680000000000007 134 -24 134 C-26.627139433978357 128.32537882260678 -29.694181997812734 123.42205533483386 -33.4140625 118.39453125 C-35.002386010570376 115.99639747665111 -36.031092686422454 113.70046939378295 -37 111 C-32.894284977683355 112.36857167410554 -31.714988830410334 115.16230543800913 -29.5625 118.6875 C-28.793432046858754 119.92086192822484 -28.02390439743698 121.15393733568237 -27.25390625 122.38671875 C-26.882817382812505 122.99692871093748 -26.51172851562501 123.60713867187502 -26.12939453125 124.23583984375 C-25.066545852418415 125.8960526741082 -23.86231524342935 127.4632783973862 -22.65234375 129.01953125 C-21 132 -21 132 -20.85546875 135.546875 C-22.301629666983217 139.9100362648914 -24.65177979469985 141.75387373623397 -28.3125 144.25 C-28.894511718749982 144.670234375 -29.47652343750002 145.09046875 -30.076171875 145.5234375 C-32.475023484546796 147.2512626683712 -34.810968552021734 148.90108466767109 -37.43359375 150.2734375 C-39.40533487769514 152.07812838474644 -39.40533487769514 152.07812838474644 -39.171875 155.7734375 C-39.05082621862846 157.3089605990624 -38.9090168078705 158.8429433267531 -38.75 160.375 C-38.61811520077828 161.99455187148362 -38.48923269377016 163.61435089570276 -38.36328125 165.234375 C-38.26394287109375 166.438037109375 -38.26394287109375 166.438037109375 -38.16259765625 167.666015625 C-37.806894228770915 172.77190866809318 -37.91866706766652 177.88506225547204 -38 183 C-41.552315176105935 184.77615758805297 -45.64641332374373 184.68243407527348 -49.5625 185.0625 C-50.86670898437501 185.198818359375 -50.86670898437501 185.198818359375 -52.197265625 185.337890625 C-57.82744147915943 185.8962898707891 -63.3426494465492 186.08615254649925 -69 186 C-69.338935813309 182.167140749495 -69.67012786864096 178.33364909417264 -70 174.5 C-70.095390625 173.42234375 -70.19078125 172.3446875 -70.2890625 171.234375 C-70.78162325731341 165.46437755718583 -71.11244202854283 159.79076446995586 -71 154 C-71.6638671875 153.7589453125 -72.327734375 153.517890625 -73.01171875 153.26953125 C-76.78181824397981 151.66785499438765 -80.27096647562584 149.73786151411136 -83.8125 147.6875 C-84.50537109375 147.30916015625 -85.1982421875 146.9308203125 -85.912109375 146.541015625 C-87.89453125 145.38671875 -87.89453125 145.38671875 -91 143 C-91.44921875 140.20703125 -91.44921875 140.20703125 -91 138 C-91.66 138 -92.32 138 -93 138 C-92.41448912252037 134.26954208259266 -91.36908308347105 131.47725944191777 -89.5234375 128.19140625 C-89.020380859375 127.28535644531252 -88.51732421874999 126.379306640625 -87.9990234375 125.44580078125 C-87.1951318359375 124.01856689453126 -87.1951318359375 124.01856689453126 -86.375 122.5625 C-81.69774824018751 114.13703963814598 -77.2028223370299 105.67202073767436 -73 97 C-72.34 97 -71.68 97 -71 97 C-71.10828125 95.9442578125 -71.10828125 95.9442578125 -71.21875 94.8671875 C-71.96834863628047 86.89229089734953 -72.10659683316534 79.00660657997479 -72 71 C-72.59296875 70.71125 -73.1859375 70.4225 -73.796875 70.125 C-76.71292884062134 68.63595123032101 -79.35306944254718 66.92504040542023 -82 65 C-82 64.34 -82 63.68000000000001 -82 63 C-84.43717258183901 63.27034633849138 -84.43717258183901 63.27034633849138 -87 64 C-87.66 64.99 -88.32 65.98 -89 67 C-92.27441775573025 65.51978375425892 -94.84723952309153 63.64606801206523 -97.625 61.375 C-98.50929687499999 60.65699218750001 -99.39359375000001 59.93898437499999 -100.3046875 59.19921875 C-101.194140625 58.4734765625 -102.08359375 57.74773437499999 -103 57 C-108.55613854855406 52.52776388960649 -114.14121056490035 48.09341077347325 -119.75 43.6875 C-120.3324951171875 43.228916015625 -120.914990234375 42.77033203125001 -121.51513671875 42.2978515625 C-124.66542440675292 39.82059941602677 -127.82759215850162 37.360609163960476 -131.0078125 34.921875 C-131.655244140625 34.42212158203125 -132.30267578125 33.9223681640625 -132.9697265625 33.407470703125 C-134.22036361123992 32.44256992525941 -135.47481831493693 31.482593125048496 -136.7333984375 30.528076171875 C-138.192650271596 29.398353141419854 -139.60198330293875 28.204673962361284 -141 27 C-141 26.340000000000003 -141 25.68 -141 25 C-140.39671875 24.7692578125 -139.7934375 24.538515625000002 -139.171875 24.30078125 C-132.4484775681569 21.56139892373313 -132.4484775681569 21.56139892373313 -128 16 C-127.1210429960692 12.692479713532066 -126.4994242782875 9.38425662260606 -126 6 C-122.57881056100678 7.521404520105278 -119.98533267085523 9.533603393642942 -117.125 11.9375 C-112.9034593193897 15.443335770520079 -108.63996488226684 18.87603395616786 -104.3125 22.25 C-98.33651063291438 26.915019713595342 -92.44497369225539 31.67738561902258 -86.593017578125 36.4970703125 C-82.50690020374289 39.84402484434722 -78.32883265591624 42.972609936120506 -74 46 C-75.12451727170766 48.971938503798825 -76.22293791420942 51.334406871314144 -78 54 C-77.4676171875 54.24234375 -76.935234375 54.48468750000001 -76.38671875 54.734375 C-73.34263225395986 56.34858780641082 -70.61385595346066 58.243669548556795 -67.8125 60.25 C-66.7464453125 60.997656250000006 -65.680390625 61.7453125 -64.58203125 62.515625 C-61.48845502976003 65.49219758104783 -61.22939803919044 66.78220423397585 -61 71 C-60.843378906249995 72.72669921875 -60.843378906249995 72.72669921875 -60.68359375 74.48828125 C-60.04963081070602 84.33986406855257 -59.89005705967354 94.12956713513543 -60 104 C-59.34 104 -58.68000000000001 104 -58 104 C-58.068078613281244 102.88665283203125 -58.1361572265625 101.77330566406249 -58.206298828125 100.626220703125 C-58.44426153728617 96.43607234383931 -58.59173730015995 92.24649535051716 -58.714111328125 88.051513671875 C-58.77890456404853 86.2477535879394 -58.86719143402415 84.44466045256019 -58.980712890625 82.643310546875 C-59.948613201215636 66.8722290154864 -59.948613201215636 66.8722290154864 -55.04833984375 60.82958984375 C-51.95299821548906 57.54133542574081 -48.59795008161683 54.72178636388375 -45 52 C-45.495000000000005 51.13374999999999 -45.495000000000005 51.13374999999999 -46 50.25 C-47 48 -47 48 -47 44 C-45.28759765625 41.8017578125 -45.28759765625 41.8017578125 -42.9140625 39.453125 C-42.065859375 38.608789062499994 -41.217656250000005 37.764453125 -40.34375 36.89453125 C-38.997968749999984 35.58548828125001 -38.997968749999984 35.58548828125001 -37.625 34.25 C-36.73554687500001 33.3618359375 -35.846093749999994 32.473671875 -34.9296875 31.55859375 C-28.280421947004612 25 -28.280421947004612 25 -26 25 C-26 24.340000000000003 -26 23.68 -26 23 C-24.54443359375 21.570068359374986 -24.54443359375 21.570068359374986 -22.5234375 19.90234375 C-17.181365056638413 15.36193532909968 -12.35277682362971 10.371961610544219 -7.47265625 5.345703125 C-6.793320312499986 4.655410156249999 -6.113984375000001 3.965117187499999 -5.4140625 3.25390625 C-4.500681152343759 2.315267333984373 -4.500681152343759 2.315267333984373 -3.56884765625 1.357666015625 C-2 0 -2 0 0 0 Z " fill="#43652D" transform="translate(183,30)"/>
<path d="M0 0 C0.6599999999999966 0 1.3199999999999932 0 2 0 C3.5078125 2.1171875 3.5078125 2.1171875 5.125 4.875 C5.663828125000009 5.779921875000014 6.20265624999999 6.684843749999999 6.7578125 7.6171875 C8 10 8 10 8 12 C8.659999999999997 12 9.319999999999993 12 10 12 C11.454429084705424 14.058210483877616 12.771435371943511 16.092836560635504 14.0625 18.25 C14.426660156249994 18.836523437500006 14.790820312499989 19.42304687500001 15.166015625 20.02734375 C16.97130910684396 22.99723506024239 18.267482683456564 25.613774313229186 19 29 C16.617157459189315 30.87330388428512 14.22117335922917 32.72294574146312 11.8125 34.5625 C10.802197265625011 35.36204101562498 10.802197265625011 35.36204101562498 9.771484375 36.177734375 C4.766277428632293 39.962159139326786 4.766277428632293 39.962159139326786 1.46875 40.125 C-2.0156250328478222 38.53718352933518 -5.139192383764382 36.57155754212346 -8.3125 34.4375 C-8.957675781250003 34.01275390625 -9.602851562500007 33.588007812499995 -10.267578125 33.150390625 C-11.849739535648482 32.1073360653873 -13.425525005163337 31.05462127529654 -15 30 C-10.943144267709727 19.58374879547091 -5.283408165903708 9.832645470044127 0 0 Z " fill="#F7FAF7" transform="translate(124,140)"/>
<path d="M0 0 C0.6599999999999966 0.3299999999999983 1.3199999999999932 0.6599999999999966 2 1 C-0.2391065686770446 4.078771531930933 -2.619246081165926 6.6031415159587965 -5.515625 9.04296875 C-10.688864432227149 13.519584463228398 -15.450734027332231 18.37952830073479 -20.25 23.25 C-22.002833749790767 25.02838526217839 -23.75795252248048 26.804521956218977 -25.515625 28.578125 C-26.281650390625003 29.355751953125008 -27.047675781250007 30.13337890625 -27.8369140625 30.9345703125 C-29.7995813342703 32.80862958103012 -31.791551396405424 34.4286279952845 -34 36 C-32.69104280066753 39.12197477633255 -32.69104280066753 39.12197477633255 -30 41 C-31.318660863608727 44.56038433174355 -33.47561098331269 46.378448554017865 -36.41015625 48.703125 C-38.777291905140345 50.63405629608501 -40.8718347157652 52.81271901342535 -43 55 C-43.66 55.66 -44.31999999999999 56.31999999999999 -45 57 C-45.30059942706316 59.36509360538375 -45.49515011709805 61.74441881346422 -45.625 64.125 C-45.699765625 65.406328125 -45.774531249999995 66.68765625 -45.8515625 68.0078125 C-45.925039062500005 69.4889453125 -45.925039062500005 69.4889453125 -46 71 C-46.33 71 -46.66 71 -47 71 C-48.93890675241158 59.018550581251546 -48.93890675241158 59.018550581251546 -45.72412109375 54.013671875 C-42.22146755464303 49.89290300546239 -38.184833788357594 46.40880005013196 -34 43 C-34.495000000000005 42.13374999999999 -34.495000000000005 42.13374999999999 -35 41.25 C-36 39 -36 39 -36 35 C-34.28759765625 32.8017578125 -34.28759765625 32.8017578125 -31.9140625 30.453125 C-31.065859375000002 29.608789062499994 -30.217656250000005 28.764453125000003 -29.34375 27.89453125 C-28.4465625 27.0218359375 -27.549374999999998 26.149140625 -26.625 25.25 C-25.73554687500001 24.361835937500004 -24.846093749999994 23.473671875 -23.9296875 22.55859375 C-17.280421947004612 16 -17.280421947004612 16 -15 16 C-15 15.340000000000003 -15 14.68 -15 14 C-13.496093750000028 12.519531250000028 -13.496093750000028 12.519531250000028 -11.4375 10.8125 C-7.413247528575511 7.397982751518626 -3.6780999466662365 3.7815465076662065 0 0 Z " fill="#446A2B" transform="translate(172,39)"/>
<path d="M0 0 C0.3300000000000125 0 0.6599999999999966 0 1 0 C1.0494769830096118 3.9326589649109565 1.0857557750617275 7.865197143569489 1.10986328125 11.798095703125 C1.1248549464635857 13.793196181790847 1.1502673123727902 15.78820946361023 1.17578125 17.783203125 C1.1822265625000057 19.036816406249997 1.1886718750000114 20.290429687499994 1.1953125 21.58203125 C1.2057861328125057 22.739367675781253 1.2162597656250114 23.896704101562506 1.22705078125 25.089111328125 C1 28 1 28 -1 31 C-1.3300000000000125 30.670000000000016 -1.6599999999999966 30.340000000000003 -2 30 C-2.3300000000000125 31.650000000000006 -2.6599999999999966 33.30000000000001 -3 35 C-3.3300000000000125 35 -3.6599999999999966 35 -4 35 C-4 24.439999999999998 -4 13.879999999999995 -4 3 C-3.009999999999991 3.4950000000000045 -3.009999999999991 3.4950000000000045 -2 4 C-2 5.980000000000004 -2 7.959999999999994 -2 10 C-1.3400000000000034 10 -0.6800000000000068 10 0 10 C0 6.700000000000003 0 3.4000000000000057 0 0 Z " fill="#8AC643" transform="translate(132,100)"/>
<path d="M0 0 C0.9899999999999949 0.3299999999999983 1.980000000000004 0.6599999999999966 3 1 C2.6700000000000017 1.3299999999999983 2.3400000000000034 1.6599999999999966 2 2 C1.839764376944487 4.882526446143814 1.7404597139161098 7.7437852708503385 1.68359375 10.62890625 C1.6628126525878884 11.493137054443366 1.6420315551757767 12.357367858886718 1.6206207275390625 13.247787475585938 C1.5550288639521455 16.019274449073038 1.4961958244248734 18.79085921317818 1.4375 21.5625 C1.3943239224472705 23.436859231886316 1.3507099407233625 25.311208431910813 1.306640625 27.185546875 C1.1993377280835205 31.790263364604684 1.098097853379599 36.39507858042191 1 41 C0.3400000000000034 41 -0.3199999999999932 41 -1 41 C-1.359888144488238 35.64424116127486 -1.6991518346573997 30.287725627159745 -2.019287109375 24.929443359375 C-2.1311214472677875 23.10649495752608 -2.2486043505190025 21.283884008550103 -2.371826171875 19.461669921875 C-2.547883659244775 16.84361667851806 -2.703649807498067 14.225025306197807 -2.85546875 11.60546875 C-2.9147001647949224 10.789748992919925 -2.973931579589845 9.97402923583985 -3.0349578857421875 9.133590698242188 C-3.3390239479988537 3.3905557799685226 -3.3390239479988537 3.3905557799685226 -1.4901885986328125 1.2606964111328125 C-0.9984263610839861 0.8446665954589889 -0.5066641235351597 0.42863677978515113 0 0 Z " fill="#D8E7D7" transform="translate(124,93)"/>
<path d="M0 0 C0.3299999999999841 0 0.6599999999999966 0 1 0 C2.9042710801978444 9.130299732734358 3.2282324773126447 17.718545922618546 3 27 C0.4052820003551574 28.29735899982242 -1.7678543934086406 28.315746544955203 -4.6640625 28.53515625 C-5.785546874999994 28.622167968750006 -6.907031249999989 28.70917968750001 -8.0625 28.798828125 C-9.238124999999997 28.885839843750006 -10.413749999999993 28.97285156250001 -11.625 29.0625 C-12.808359374999995 29.153378906249998 -13.991718750000004 29.244257812499995 -15.2109375 29.337890625 C-18.140341844764976 29.56232079657474 -21.07013705429968 29.78163828986459 -24 30 C-24 26.039999999999992 -24 22.079999999999984 -24 18 C-23.67 18 -23.340000000000003 18 -23 18 C-23 21.30000000000001 -23 24.599999999999994 -23 28 C-21.6864453125 27.855625000000003 -20.372890624999997 27.711250000000007 -19.01953125 27.5625 C-17.28386920320753 27.374860859806233 -15.548191276333768 27.18736856958236 -13.8125 27 C-12.516025390625003 26.85691406250001 -12.516025390625003 26.85691406250001 -11.193359375 26.7109375 C-10.352246093750011 26.620703125000006 -9.511132812499994 26.53046875000001 -8.64453125 26.4375 C-7.489813232421881 26.31181640624999 -7.489813232421881 26.31181640624999 -6.311767578125 26.18359375 C-3.865245325941089 25.989298181973567 -1.4531916105362654 25.96964341394542 1 26 C0.9341772460937534 25.24791259765624 0.8683544921875068 24.495825195312506 0.800537109375 23.720947265625 C0.5073249259577324 20.335250552546825 0.22230420710488374 16.94891389480202 -0.0625 13.5625 C-0.1662695312500091 12.378496093749987 -0.27003906249998977 11.194492187500003 -0.376953125 9.974609375 C-0.47041015625001137 8.849902343749989 -0.5638671874999943 7.725195312500006 -0.66015625 6.56640625 C-0.7491821289062557 5.524279785156239 -0.8382080078125114 4.482153320312506 -0.929931640625 3.408447265625 C-0.9530541992187409 2.6136596679687614 -0.9761767578125102 1.8188720703124943 -1 1 C-0.6700000000000159 0.6699999999999875 -0.3400000000000034 0.3400000000000034 0 0 Z " fill="#87BE51" transform="translate(140,184)"/>
<path d="M0 0 C0.990000000000002 0.3299999999999983 1.980000000000004 0.6599999999999966 3 1 C2.09456151361033 3.716315459169003 1.0752519411225094 6.347711878564475 0 9 C-0.6599999999999966 9 -1.3200000000000003 9 -2 9 C-3.6598071558599727 11.987652880547948 -4.836268911328155 14.561647137891256 -5 18 C-2.487037892396792 22.82488724659816 0.7769301873562497 25.73671878113892 5 29 C4.670000000000002 29.659999999999997 4.340000000000003 30.319999999999993 4 31 C1.373501474240797 28.876846757464776 -1.250937735657132 26.751163270595768 -3.875 24.625 C-4.621367187499999 24.021718750000005 -5.367734374999998 23.418437499999996 -6.13671875 22.796875 C-6.852148437499999 22.216796875 -7.567578124999997 21.63671875 -8.3046875 21.0390625 C-8.964526367187503 20.5049072265625 -9.624365234374999 19.970751953125003 -10.30419921875 19.42041015625 C-12 18 -12 18 -14 16 C-13.203359374999998 15.671289062500001 -13.203359374999998 15.671289062500001 -12.390625 15.3359375 C-7.328383576297817 13.06347145943296 -4.63983627353776 11.076608218341846 -2 6 C-0.7567585335692968 2.7750792013186043 -0.7567585335692968 2.7750792013186043 0 0 Z " fill="#89BC50" transform="translate(59,40)"/>
<path d="M0 0 C2.4680004686068173 1.151733552016509 4.047835654825278 2.0478356548252776 6 4 C6.31884765625 6.88916015625 6.31884765625 6.88916015625 6.4140625 10.5390625 C6.452734375000006 11.841015624999997 6.491406249999997 13.142968749999994 6.53125 14.484375 C6.562707632287157 15.86457861659926 6.593954910044886 17.244787042412497 6.625 18.625 C6.6631793375249515 20.013045406627526 6.702231049497001 21.401067112854633 6.7421875 22.7890625 C6.836729426367569 26.192571849232536 6.922278970288488 29.59607164995218 7 33 C5.515000000000001 33.495000000000005 5.515000000000001 33.495000000000005 4 34 C2.314613989524503 35.99665314110706 2.314613989524503 35.99665314110706 1 38 C1.875 32.25 1.875 32.25 3 30 C3.6599999999999966 30 4.319999999999993 30 5 30 C4.8917187499999955 28.9442578125 4.8917187499999955 28.9442578125 4.78125 27.8671875 C4.031651363719533 19.89229089734951 3.893403166834659 12.0066065799748 4 4 C2.680000000000007 3.3400000000000034 1.3599999999999994 2.680000000000007 0 2 C0 1.3400000000000034 0 0.6800000000000068 0 0 Z " fill="#416827" transform="translate(107,97)"/>
<path d="M0 0 C0.3300000000000125 1.3199999999999932 0.6599999999999966 2.6400000000000006 1 4 C0.36062499999999886 4.103125000000006 -0.2787500000000023 4.206249999999997 -0.9375 4.3125 C-1.618124999999992 4.539375000000007 -2.2987500000000125 4.766249999999999 -3 5 C-3.3300000000000125 5.989999999999995 -3.6599999999999966 6.980000000000004 -4 8 C-4.3300000000000125 8.329999999999998 -4.659999999999997 8.659999999999997 -5 9 C-5.160171660928768 11.809765176791942 -5.259505343939168 14.597735961791699 -5.31640625 17.41015625 C-5.337187347412112 18.252191009521482 -5.357968444824223 19.094225769042964 -5.3793792724609375 19.961776733398438 C-5.4449681202886495 22.66193178836481 -5.503802755488522 25.36218717188214 -5.5625 28.0625 C-5.605676366262827 29.888682412756836 -5.649290357946967 31.71485453544574 -5.693359375 33.541015625 C-5.800658942447967 38.02723991933374 -5.901899660374141 42.5135654967886 -6 47 C-6.329999999999998 47 -6.659999999999997 47 -7 47 C-7.267010221136616 41.53828878619413 -7.500014843309515 36.07656721247449 -7.701904296875 30.612060546875 C-7.775296544287116 28.754248403222263 -7.857895149330417 26.896775824253112 -7.949951171875 25.039794921875 C-8.080850096616658 22.366738737396545 -8.178345235876876 19.69420073393121 -8.26953125 17.01953125 C-8.317211456298821 16.192260284423824 -8.364891662597657 15.364989318847648 -8.414016723632813 14.512649536132813 C-8.529057494454918 10.111253824222658 -8.418744904595258 8.536371318543004 -5.608154296875 4.936279296875 C-3 3 -3 3 -1 3 C-0.6699999999999875 2.010000000000005 -0.3400000000000034 1.019999999999996 0 0 Z " fill="#80B74A" transform="translate(134,88)"/>
<path d="M0 0 C0.6599999999999966 0.3299999999999983 1.3199999999999932 0.6599999999999966 2 1 C0.5149999999999864 2.4849999999999994 0.5149999999999864 2.4849999999999994 -1 4 C0.30895719933246824 7.12197477633255 0.30895719933246824 7.12197477633255 3 9 C1.6813391363912729 12.560384331743549 -0.47561098331269136 14.378448554017865 -3.41015625 16.703125 C-5.777291905140345 18.634056296084992 -7.871834715765203 20.812719013425365 -10 23 C-10.659999999999997 23.659999999999997 -11.319999999999993 24.319999999999993 -12 25 C-12.300599427063162 27.36509360538375 -12.49515011709805 29.744418813464222 -12.625 32.125 C-12.699765624999998 33.406328125 -12.774531249999995 34.68765625 -12.8515625 36.0078125 C-12.900546875000003 36.995234374999995 -12.949531250000007 37.98265624999999 -13 39 C-13.329999999999998 39 -13.659999999999997 39 -14 39 C-15.938906752411583 27.018550581251546 -15.938906752411583 27.018550581251546 -12.72412109375 22.013671875 C-9.221467554643027 17.892903005462387 -5.184833788357594 14.408800050131944 -1 11 C-1.3300000000000125 10.4225 -1.6599999999999966 9.844999999999999 -2 9.25 C-3 7 -3 7 -3 3 C-1.5 1.25 -1.5 1.25 0 0 Z " fill="#36591E" transform="translate(139,71)"/>
<path d="M0 0 C0.3300000000000125 0 0.6599999999999966 0 1 0 C1 8.579999999999998 1 17.159999999999997 1 26 C1.990000000000009 26 2.9799999999999898 26 4 26 C5.859375 28.5546875 5.859375 28.5546875 7.75 31.875 C8.701328125000003 33.510820312500016 8.701328125000003 33.510820312500016 9.671875 35.1796875 C10.110156249999989 36.11039062500001 10.548437500000006 37.041093750000016 11 38 C10.669999999999987 38.66 10.340000000000003 39.31999999999999 10 40 C9.541093749999987 39.28972656249999 9.082187500000003 38.579453124999986 8.609375 37.84765625 C7.995781249999993 36.9285546875 7.382187499999986 36.00945312499999 6.75 35.0625 C6.146718749999991 34.14597656250001 5.54343750000001 33.22945312499999 4.921875 32.28515625 C3.0404822360928563 29.59478288087564 3.0404822360928563 29.59478288087564 -1 29 C-0.6699999999999875 19.430000000000007 -0.3400000000000034 9.86 0 0 Z " fill="#4C6D38" transform="translate(135,100)"/>
<path d="M0 0 C1.6500000000000057 0.3300000000000125 3.3000000000000114 0.6599999999999966 5 1 C3.798232580378624 5.673539965194237 1.552353284762205 7.329234578688272 -2.34375 9.7890625 C-4.29541671717206 11.07014892237163 -4.29541671717206 11.07014892237163 -6 14 C-7.5 12.625 -7.5 12.625 -9 11 C-9 10.340000000000003 -9 9.680000000000007 -9 9 C-8.340000000000003 9 -7.680000000000007 9 -7 9 C-6.6699999999999875 8.009999999999991 -6.340000000000003 7.02000000000001 -6 6 C-5.360624999999999 5.690625000000011 -4.721249999999998 5.381249999999994 -4.0625 5.0625 C-1.5453108501355075 3.7657661955243498 -1.0311305185371964 2.5778262963429768 0 0 Z " fill="#87C43E" transform="translate(150,165)"/>
<path d="M0 0 C1.980000000000004 1.3199999999999932 3.960000000000008 2.6399999999999864 6 4 C4 5 2 6 0 7 C1.6500000000000057 8.650000000000006 3.299999999999997 10.300000000000011 5 12 C0.9962435826976872 10.514376097475946 -2.6142184746440336 8.631366153807107 -6.3125 6.5 C-7.381132812499999 5.891562499999992 -8.449765624999998 5.2831250000000125 -9.55078125 4.65625 C-10.763144531250006 3.8364062500000102 -10.763144531250006 3.8364062500000102 -12 3 C-12 2.3400000000000034 -12 1.6800000000000068 -12 1 C-8.700000000000003 1.990000000000009 -5.400000000000006 2.9799999999999898 -2 4 C-2 3.3400000000000034 -2 2.680000000000007 -2 2 C-1.3400000000000034 2 -0.6800000000000068 2 0 2 C0 1.3400000000000034 0 0.6800000000000068 0 0 Z " fill="#86BB4B" transform="translate(106,169)"/>
<path d="M0 0 C0.6599999999999966 0.3300000000000125 1.3199999999999932 0.6599999999999966 2 1 C2 1.6599999999999966 2 2.319999999999993 2 3 C1.3400000000000034 3 0.6800000000000068 3 0 3 C0.3299999999999983 3.990000000000009 0.6599999999999966 4.97999999999999 1 6 C0.3400000000000034 6.659999999999997 -0.3199999999999932 7.319999999999993 -1 8 C-1.3299999999999983 8.659999999999997 -1.6599999999999966 9.319999999999993 -2 10 C-2.989999999999995 10.495000000000005 -2.989999999999995 10.495000000000005 -4 11 C-4.730756483230479 13.314062196896515 -5.4013825765230195 15.648288693483266 -6 18 C-6.659999999999997 18 -7.319999999999993 18 -8 18 C-8.103125000000006 18.55687499999999 -8.206249999999997 19.11375000000001 -8.3125 19.6875 C-9.131335771985917 22.441765778498052 -10.458537811120294 24.587276573927426 -12 27 C-12.659999999999997 26.670000000000016 -13.319999999999993 26.340000000000003 -14 26 C-12.349999999999994 22.69999999999999 -10.700000000000003 19.400000000000006 -9 16 C-8.340000000000003 16 -7.680000000000007 16 -7 16 C-6.958749999999995 15.216250000000002 -6.917500000000004 14.432500000000005 -6.875 13.625 C-5.627471598171681 8.456668049568378 -2.8648435420408873 4.433060649151969 0 0 Z " fill="#88BA50" transform="translate(111,130)"/>
<path d="M0 0 C0.22197585061692848 2.102771233546761 0.42713637114158587 4.207323018541231 0.625 6.3125 C0.7410156249999886 7.484257812499997 0.8570312500000057 8.656015625000002 0.9765625 9.86328125 C1 13 1 13 -1 16 C-1.6599999999999966 12.369999999999997 -2.319999999999993 8.739999999999995 -3 5 C-5.969999999999999 7.475000000000001 -5.969999999999999 7.475000000000001 -9 10 C-9 7 -9 7 -7.5390625 5.17578125 C-6.907421875000011 4.560898437500001 -6.275781249999994 3.946015625000001 -5.625 3.3125 C-4.685273437500001 2.3785742187500034 -4.685273437500001 2.3785742187500034 -3.7265625 1.42578125 C-2 0 -2 0 0 0 Z " fill="#507139" transform="translate(183,30)"/>
<path d="M0 0 C0 0.3300000000000125 0 0.6599999999999966 0 1 C-3.186902329089037 1.3392145154246293 -6.374601036085863 1.6702941672541556 -9.5625 2 C-10.457753906249991 2.095390624999993 -11.35300781250001 2.1907812499999864 -12.275390625 2.2890625 C-17.214907883365726 2.7956796547041733 -22.0348801405012 3.1089738240767986 -27 3 C-27 2.3400000000000034 -27 1.6800000000000068 -27 1 C-24.646551937303187 0.660764243214885 -22.292451596115868 0.3284946618521758 -19.9375 0 C-19.280722656250006 -0.09539062499999318 -18.6239453125 -0.19078124999998636 -17.947265625 -0.2890625 C-11.821881222579918 -1.1339431072303512 -6.039918201880425 -1.4642225943952667 0 0 Z " fill="#507137" transform="translate(143,213)"/>
<path d="M0 0 C0 0.990000000000002 0 1.9799999999999969 0 3 C2.450561140931825 5.370867931083325 2.450561140931825 5.370867931083325 5.5 7.6875 C6.520937500000002 8.4957421875 7.5418750000000045 9.303984374999999 8.59375 10.13671875 C9.387812500000003 10.7516015625 10.181875000000005 11.366484374999999 11 12 C10.010000000000005 12.329999999999998 9.019999999999996 12.659999999999997 8 13 C6.374267578125 12.135498046875 6.374267578125 12.135498046875 4.64453125 10.76171875 C4.022558593749999 10.271230468750005 3.400585937499997 9.780742187499996 2.759765625 9.275390625 C2.117167968749996 8.751386718749998 1.4745703124999991 8.227382812499997 0.8125 7.6875 C0.15830078124999858 7.175097656250003 -0.49589843750000284 6.662695312499999 -1.169921875 6.134765625 C-2.825047921079168 4.811009965622816 -4.4181481211891835 3.41050200554465 -6 2 C-6 1.3400000000000034 -6 0.6799999999999997 -6 0 C-3.5090718940470964 -1.2454640529764518 -2.5891926687883497 -0.7767578006365028 0 0 Z " fill="#4E7037" transform="translate(48,55)"/>
<path d="M0 0 C0.9900000000000091 0 1.9799999999999898 0 3 0 C3 0.9900000000000091 3 1.9799999999999898 3 3 C0.89453125 4.39453125 0.89453125 4.39453125 -2 6 C-4.123785324825462 7.542875411636061 -6.2252407599658 9.097328015186577 -8.3125 10.6875 C-8.86228515625001 11.103222656250011 -9.412070312499992 11.518945312499994 -9.978515625 11.947265625 C-11.320679247864405 12.96264158316697 -12.660576219393477 13.981012530543353 -14 15 C-14.990000000000009 14.340000000000003 -15.980000000000004 13.680000000000007 -17 13 C-14.732432767707849 11.349498619560137 -12.461210393050493 9.704499722271919 -10.1875 8.0625 C-9.54490234375001 7.593925781249993 -8.902304687499992 7.125351562499986 -8.240234375 6.642578125 C-7.618261718750006 6.194628906249989 -6.996289062500011 5.746679687500006 -6.35546875 5.28515625 C-5.784655761718739 4.871447753906239 -5.213842773437506 4.457739257812506 -4.625732421875 4.031494140625 C-3 3 -3 3 0 2 C0 1.3400000000000034 0 0.6800000000000068 0 0 Z " fill="#4E6F33" transform="translate(143,167)"/>
<path d="M0 0 C3.041709601837198 0.2851602751722311 4.390458022485674 1.260305348323783 7 3 C7 3.6599999999999966 7 4.319999999999993 7 5 C7.989999999999995 5.329999999999998 8.980000000000004 5.659999999999997 10 6 C10 6.659999999999997 10 7.319999999999993 10 8 C8.000000000000014 7 5.999999999999986 6 4 5 C4 4.340000000000003 4 3.680000000000007 4 3 C1.5628274181610067 3.2703463384913647 1.5628274181610067 3.2703463384913647 -1 4 C-1.9899999999999949 5.484999999999999 -1.9899999999999949 5.484999999999999 -3 7 C-5.884377793984868 5.70700305786886 -7.872194212097355 4.340586366692918 -10 2 C-8.906875 2.226875000000007 -7.813749999999999 2.4537499999999994 -6.6875 2.6875 C-5.470624999999998 2.7906250000000057 -4.253749999999997 2.893749999999997 -3 3 C-1.312011733650479 1.5624980927386787 -1.312011733650479 1.5624980927386787 0 0 Z " fill="#476936" transform="translate(97,90)"/>
<path d="M0 0 C0.6638671875000028 0.7257421875000034 1.3277343750000057 1.4514843750000068 2.01171875 2.19921875 C5.222720556710513 5.410220556710499 8.89671252094405 7.560453803911372 12.8125 9.8125 C13.50537109375 10.219199218749992 14.1982421875 10.625898437500013 14.912109375 11.044921875 C16.604090520963297 12.036772891599156 18.301498914448416 13.01935597702115 20 14 C18.209228515625 14.612548828125 18.209228515625 14.612548828125 16 15 C13.493269491577891 13.651572036893128 11.26513988600476 12.294852569255625 8.9375 10.6875 C8.312949218749992 10.27048828125001 7.688398437499998 9.853476562499992 7.044921875 9.423828125 C5.355852427354506 8.293575677109146 3.6774090640773807 7.147486394988533 2 6 C1.0100000000000051 5.340000000000003 0.01999999999999602 4.680000000000007 -1 4 C-0.6700000000000017 2.680000000000007 -0.3400000000000034 1.3600000000000136 0 0 Z " fill="#385D1F" transform="translate(108,167)"/>
<path d="M0 0 C2 2 2 2 3 8 C7.289999999999992 8.990000000000002 11.580000000000013 9.980000000000004 16 11 C14.349999999999994 12.649999999999999 12.699999999999989 14.299999999999997 11 16 C11 14.350000000000001 11 12.700000000000003 11 11 C9.906875000000014 11.041249999999998 8.813749999999999 11.082499999999996 7.6875 11.125 C4 11 4 11 1 9 C1 7.68 1 6.359999999999999 1 5 C0.3400000000000034 4.670000000000002 -0.3199999999999932 4.340000000000003 -1 4 C-0.6699999999999875 2.6799999999999997 -0.3400000000000034 1.3599999999999994 0 0 Z " fill="#88BE4F" transform="translate(180,38)"/>
<path d="M0 0 C0.6599999999999966 0.3299999999999983 1.3199999999999932 0.6599999999999966 2 1 C-1.4282032128180617 5.713779417624828 -5.569128188406921 9.27365378297057 -10 13 C-10.611015624999993 13.5143359375 -11.222031249999986 14.028671875 -11.8515625 14.55859375 C-13.229673135405989 15.711373499522068 -14.614082392126448 16.856617973504328 -16 18 C-15.443781263274673 14.352794283472534 -14.208929324548933 12.979809627386103 -11.375 10.6875 C-7.349748708303025 7.330701991400723 -3.652475366411096 3.755201236091416 0 0 Z " fill="#3A5F24" transform="translate(172,39)"/>
<path d="M0 0 C4.036779652572534 1.345593217524197 5.167227927574942 3.9600144862188813 7.25 7.4375 C7.814609375000003 8.335654296874992 7.814609375000003 8.335654296874992 8.390625 9.251953125 C9.330166052228805 10.794251212574125 10.173207694443818 12.394436154109371 11 14 C10.669999999999987 14.659999999999997 10.340000000000003 15.319999999999993 10 16 C8.701618239167175 14.275869801312695 7.411562532930702 12.545467682257197 6.125 10.8125 C5.405703125000002 9.849570312499992 4.6864062500000045 8.886640625000013 3.9453125 7.89453125 C2.194034008292192 5.288713253302234 1.0254020593582993 2.9520785603631055 0 0 Z " fill="#42662A" transform="translate(146,141)"/>
<path d="M0 0 C0.5859375 1.84375 0.5859375 1.84375 1 4 C-0.375 6.5 -0.375 6.5 -2 9 C-2.695794541921231 11.191305342449596 -2.695794541921231 11.191305342449596 -3 13 C-3.6599999999999966 13 -4.319999999999993 13 -5 13 C-5.329999999999998 14.319999999999993 -5.659999999999997 15.639999999999986 -6 17 C-6.659999999999997 17 -7.319999999999993 17 -8 17 C-6.3341707978708115 10.836431952121984 -3.1219471428966727 5.517403441219898 0 0 Z " fill="#4F6C39" transform="translate(107,133)"/>
<path d="M0 0 C5 1 5 1 7 2 C7 2.6599999999999966 7 3.319999999999993 7 4 C5.680000000000007 4 4.359999999999999 4 3 4 C3 7.6299999999999955 3 11.259999999999991 3 15 C2.6700000000000017 15 2.3400000000000034 15 2 15 C1.3400000000000034 10.050000000000011 0.6800000000000068 5.099999999999994 0 0 Z " fill="#3E641F" transform="translate(111,183)"/>
<path d="M0 0 C0.6599999999999966 0 1.3199999999999932 0 2 0 C2 0.6599999999999966 2 1.3199999999999932 2 2 C1.3400000000000034 2 0.6800000000000068 2 0 2 C0.3300000000000125 3.6500000000000057 0.6599999999999966 5.300000000000011 1 7 C-2.960000000000008 9.969999999999999 -6.9199999999999875 12.939999999999998 -11 16 C-11 15.009999999999991 -11 14.02000000000001 -11 13 C-9.3203125 11.39453125 -9.3203125 11.39453125 -7.125 9.8125 C-6.046054687500003 9.017792968750001 -6.046054687500003 9.017792968750001 -4.9453125 8.20703125 C-3 7 -3 7 -1 7 C-1.0206249999999955 6.030624999999986 -1.041249999999991 5.061250000000001 -1.0625 4.0625 C-1 1 -1 1 0 0 Z " fill="#8BBE57" transform="translate(157,162)"/>
<path d="M0 0 C5.709853793802623 3.6511990246084807 10.944641348459498 7.482445460325508 16 12 C15.010000000000005 12.329999999999998 14.019999999999996 12.659999999999997 13 13 C10.8125 11.5 10.8125 11.5 8 9 C7.306484374999997 8.419921875 6.612968749999993 7.83984375 5.8984375 7.2421875 C1.6009061675905514 3.612823583230181 1.6009061675905514 3.612823583230181 0 2 C0 1.3400000000000034 0 0.6799999999999997 0 0 Z " fill="#86BE52" transform="translate(63,43)"/>
<path d="M0 0 C4.278780269022107 2.0375144138200483 8.112828690869662 4.316000762743329 12 7 C11.010000000000005 7.3300000000000125 10.019999999999996 7.659999999999997 9 8 C8.010000000000005 7.340000000000003 7.019999999999996 6.680000000000007 6 6 C3.3746847604723342 5.832864306388643 3.3746847604723342 5.832864306388643 1 6 C1 5.009999999999991 1 4.02000000000001 1 3 C0.3400000000000034 2.6699999999999875 -0.3199999999999932 2.3400000000000034 -1 2 C-0.6700000000000017 1.3400000000000034 -0.3400000000000034 0.6800000000000068 0 0 Z " fill="#8BC051" transform="translate(112,174)"/>
<path d="M0 0 C3.365918663926621 1.442536570254262 5.5104707892305385 3.332647274175571 8 6 C6.695931159047518 8.019203366636106 5.361765813298376 10.01924972611144 4 12 C3.6700000000000017 12 3.3400000000000034 12 3 12 C2.8143749999999983 10.143749999999997 2.8143749999999983 10.143749999999997 2.625 8.25 C2.2425369517764295 5.123780301476913 1.6945047692835828 2.7112076308537354 0 0 Z " fill="#84B94C" transform="translate(99,72)"/>
<path d="M0 0 C0 3.6335849679437615 -1.2231686806476318 4.901429377669601 -3.5625 7.56640625 C-5.521108347217279 9.51969229192592 -7.490357100750828 10.846920830074708 -10 12 C-10.659999999999997 11.670000000000002 -11.319999999999993 11.340000000000003 -12 11 C-11.047927902492432 9.994037029048613 -10.088126542072814 8.995384368840817 -9.125 8 C-8.324492187499999 7.164687499999999 -8.324492187499999 7.164687499999999 -7.5078125 6.3125 C-6 5 -6 5 -4 5 C-3.6699999999999875 4.010000000000005 -3.3400000000000034 3.019999999999996 -3 2 C-2.009999999999991 1.3400000000000034 -1.0200000000000102 0.6800000000000068 0 0 Z " fill="#DFEBDB" transform="translate(169,78)"/>
<path d="M0 0 C0.3299999999999983 0 0.6599999999999966 0 1 0 C0.5853959812340506 5.286201239265836 -0.28322682414024314 8.17390996602672 -4 12 C-4.990000000000002 12.659999999999997 -5.980000000000004 13.32 -7 14 C-7.990000000000002 13.670000000000002 -8.979999999999997 13.340000000000003 -10 13 C-9.529492187499997 12.6480859375 -9.058984375000001 12.296171874999999 -8.57421875 11.93359375 C-4.028952595799012 8.329376489008325 -1.8681913026062205 5.494680301783006 0 0 Z " fill="#416226" transform="translate(57,41)"/>
<path d="M0 0 C0.3299999999999983 0 0.6599999999999966 0 1 0 C1.027014076364793 2.104096392413396 1.0464022321646524 4.208291775807439 1.0625 6.3125 C1.0741015625000045 7.4842578125000045 1.0857031249999949 8.656015625000009 1.09765625 9.86328125 C1 13 1 13 0 16 C-0.6599999999999966 16 -1.3199999999999932 16 -2 16 C-4.429451599456925 12.355822600814605 -4.161795746453436 10.287587281015902 -4 6 C-3.6700000000000017 6 -3.3400000000000034 6 -3 6 C-3 7.97999999999999 -3 9.960000000000008 -3 12 C-2.010000000000005 12 -1.019999999999996 12 0 12 C0 8.039999999999992 0 4.079999999999998 0 0 Z " fill="#335A18" transform="translate(126,122)"/>
<path d="M0 0 C2.5108311407791035 1.2554155703895447 2.87125446055596 2.500634876945341 4 5 C5.319999999999993 5 6.640000000000001 5 8 5 C7.670000000000002 6.319999999999993 7.340000000000003 7.640000000000001 7 9 C3.0586092216902045 7.332488516868935 0.21071880130527632 4.772893510218182 -3 2 C-2.010000000000005 1.3400000000000034 -1.019999999999996 0.6800000000000068 0 0 Z " fill="#85BC4C" transform="translate(75,76)"/>
<path d="M0 0 C0.3300000000000125 1.3200000000000003 0.6599999999999966 2.6400000000000006 1 4 C-0.1756249999999966 4.618749999999999 -0.1756249999999966 4.618749999999999 -1.375 5.25 C-4.058916555825249 7.039277703883499 -4.880989491652059 8.04988138708267 -6 11 C-6.990000000000009 10.340000000000003 -7.97999999999999 9.68 -9 9 C-6.030000000000001 6.030000000000001 -3.0600000000000023 3.0600000000000023 0 0 Z " fill="#86BB50" transform="translate(162,51)"/>
<path d="M0 0 C0.1856250000000017 0.9590624999999875 0.1856250000000017 0.9590624999999875 0.375 1.9375 C0.6843750000000028 2.9584375000000023 0.6843750000000028 2.9584375000000023 1 4 C3.000323733552719 5.000161866776352 4.83125748422168 5.493960079651714 7 6 C7 6.990000000000009 7 7.97999999999999 7 9 C3.000950306751548 9 1.1979957766099574 7.274130330033756 -2 5 C-1.3400000000000034 3.3499999999999943 -0.6800000000000068 1.6999999999999886 0 0 Z " fill="#D9EADC" transform="translate(111,165)"/>
<path d="M0 0 C0.9900000000000091 0 1.9799999999999898 0 3 0 C1.4439622928447307 3.819365281199296 -0.9560493119284104 6.260444380735564 -4 9 C-4.659999999999997 9 -5.319999999999993 9 -6 9 C-6 8.010000000000005 -6 7.019999999999996 -6 6 C-5.009999999999991 6 -4.02000000000001 6 -3 6 C-3 4.680000000000007 -3 3.3599999999999994 -3 2 C-2.009999999999991 2 -1.0200000000000102 2 0 2 C0 1.3400000000000034 0 0.6800000000000068 0 0 Z " fill="#86BB4C" transform="translate(140,89)"/>
<path d="M0 0 C0.08249999999999602 0.6187500000000057 0.16500000000000625 1.2374999999999972 0.25 1.875 C0.7787665592529294 4.120999314624726 0.7787665592529294 4.120999314624726 2.6875 4.9375 C3.4506250000000023 5.288124999999994 4.2137500000000045 5.638750000000002 5 6 C7.069819294985521 7.594115104939945 9.021420056327486 9.291226412282825 11 11 C10.010000000000005 11.495000000000005 10.010000000000005 11.495000000000005 9 12 C5.700000000000003 9.36 2.4000000000000057 6.719999999999999 -1 4 C-0.6700000000000017 2.680000000000007 -0.3400000000000034 1.3599999999999994 0 0 Z " fill="#3A5E23" transform="translate(104,80)"/>
<path d="M0 0 C0.3300000000000125 1.3199999999999932 0.6599999999999966 2.6400000000000006 1 4 C0.3400000000000034 4 -0.3199999999999932 4 -1 4 C-0.6699999999999875 5.650000000000006 -0.3400000000000034 7.299999999999997 0 9 C-1.3199999999999932 8.340000000000003 -2.6399999999999864 7.680000000000007 -4 7 C-4 5.680000000000007 -4 4.359999999999999 -4 3 C-2 1.25 -2 1.25 0 0 Z " fill="#85BA4B" transform="translate(142,71)"/>
<path d="M0 0 C0.6599999999999966 0.3300000000000125 1.3199999999999932 0.6599999999999966 2 1 C0.8803014031539362 2.005932429252084 -0.24594120142751308 3.0045848959524335 -1.375 4 C-2.314726562499999 4.835312499999986 -2.314726562499999 4.835312499999986 -3.2734375 5.6875 C-5 7 -5 7 -7 7 C-7 7.659999999999997 -7 8.319999999999993 -7 9 C-8.319999999999993 8.669999999999987 -9.639999999999986 8.340000000000003 -11 8 C-7.3700000000000045 5.360000000000014 -3.740000000000009 2.719999999999999 0 0 Z " fill="#3C6321" transform="translate(149,175)"/>
<path d="M0 0 C2.7242631099849177 2.3527726858960705 3.8141762978707163 4.624963309324329 5 8 C3.625 9.5 3.625 9.5 2 11 C1.3400000000000034 11 0.6800000000000068 11 0 11 C0 10.009999999999991 0 9.02000000000001 0 8 C0.6599999999999966 8 1.3199999999999932 8 2 8 C1.009999999999991 5.689999999999998 0.020000000000010232 3.3799999999999955 -1 1 C-0.6699999999999875 0.6699999999999875 -0.3400000000000034 0.3400000000000034 0 0 Z " fill="#4D6E37" transform="translate(157,156)"/>
<path d="M0 0 C1.4850000000000136 0.9900000000000091 1.4850000000000136 0.9900000000000091 3 2 C3.1875 5.625 3.1875 5.625 3 9 C1.6800000000000068 8.340000000000003 0.36000000000001364 7.680000000000007 -1 7 C-0.6699999999999875 4.689999999999998 -0.3400000000000034 2.3799999999999955 0 0 Z " fill="#82BF34" transform="translate(137,183)"/>
<path d="M0 0 C3.1611577555191275 1.3698350273916304 3.992709197315321 1.9890637959729673 6 5 C3.666666666666657 5 1.3333333333333428 5 -1 5 C-1.990000000000009 5.4950000000000045 -1.990000000000009 5.4950000000000045 -3 6 C-2.4265506271360664 3.1327531356802893 -2.138548496131733 2.138548496131733 0 0 Z " fill="#4D6F34" transform="translate(146,87)"/>
<path d="M0 0 C0.3300000000000125 0.990000000000002 0.6599999999999966 1.9799999999999969 1 3 C-1.3100000000000023 4.980000000000004 -3.6200000000000045 6.960000000000001 -6 9 C-6 6 -6 6 -4.6875 4.39453125 C-4.130625000000009 3.8724609375000014 -3.5737499999999898 3.350390625000003 -3 2.8125 C-2.443125000000009 2.282695312500003 -1.8862499999999898 1.7528906249999991 -1.3125 1.20703125 C-0.6628125000000011 0.6095507812500003 -0.6628125000000011 0.6095507812500003 0 0 Z " fill="#4D7137" transform="translate(155,55)"/>
<path d="M0 0 C3.9838107504909033 2.1626401216950626 6.889835450643943 4.712111762109316 10 8 C5.602493277240669 7.49259537814315 3.130510781374582 4.917066864462683 0 2 C0 1.3400000000000034 0 0.6800000000000068 0 0 Z " fill="#3E6027" transform="translate(79,84)"/>
<path d="M0 0 C0 0.990000000000002 0 1.9799999999999969 0 3 C-0.6599999999999966 3.6599999999999966 -1.3200000000000003 4.32 -2 5 C-4 3.625 -4 3.625 -6 2 C-6 1.3400000000000034 -6 0.6799999999999997 -6 0 C-3.5090718940470964 -1.2454640529764518 -2.5891926687883497 -0.7767578006365028 0 0 Z " fill="#536F44" transform="translate(48,55)"/>
<path d="M0 0 C0.6599999999999966 0.9899999999999949 1.3199999999999932 1.980000000000004 2 3 C0.6800000000000068 4.650000000000006 -0.6400000000000006 6.299999999999997 -2 8 C-2.6599999999999966 7.670000000000002 -3.319999999999993 7.340000000000003 -4 7 C-2.7961855199008028 4.506384291223085 -1.54571278147192 2.318569172207887 0 0 Z " fill="#E2EEE1" transform="translate(109,77)"/>
<path d="M0 0 C2.969999999999999 1.6500000000000057 5.939999999999998 3.3000000000000114 9 5 C5 6 5 6 1.75 4.0625 C0.8425000000000011 3.381875000000008 -0.06499999999999773 2.7012499999999875 -1 2 C-0.6700000000000017 1.3400000000000034 -0.3400000000000034 0.6800000000000068 0 0 Z " fill="#416225" transform="translate(119,176)"/>
<path d="M0 0 C0.6599999999999966 0.3300000000000125 1.3199999999999932 0.6599999999999966 2 1 C0.6800000000000068 3.6399999999999864 -0.6400000000000006 6.280000000000001 -2 9 C-2.3299999999999983 9 -2.6599999999999966 9 -3 9 C-3.369230769230768 3.461538461538453 -3.369230769230768 3.461538461538453 -1.5 1.125 C-1.0049999999999955 0.7537499999999966 -0.5100000000000051 0.3824999999999932 0 0 Z " fill="#86B84F" transform="translate(114,152)"/>
<path d="M0 0 C0.6599999999999966 0 1.3199999999999932 0 2 0 C0.844147152142753 3.912117331209174 -0.35534962120050295 6.87450409778242 -3 10 C-3.3636198017182295 5.757768979953937 -2.5393227969235 3.418319149704729 0 0 Z " fill="#88B64F" transform="translate(122,136)"/>
<path d="M0 0 C3.875 1.875 3.875 1.875 5 3 C5.071799639796808 4.519280378100305 5.08392007299436 6.0416748174006045 5.0625 7.5625 C5.053476562499995 8.388789062499995 5.044453125000004 9.215078125000005 5.03515625 10.06640625 C5.017753906249993 11.023535156250006 5.017753906249993 11.023535156250006 5 12 C4.670000000000002 12 4.340000000000003 12 4 12 C4 9.36 4 6.719999999999999 4 4 C2.680000000000007 3.3400000000000034 1.3599999999999994 2.680000000000007 0 2 C0 1.3400000000000034 0 0.6800000000000068 0 0 Z " fill="#3A5A20" transform="translate(107,97)"/>
<path d="M0 0 C0.6599999999999966 0.3299999999999983 1.3199999999999932 0.6599999999999966 2 1 C-0.3100000000000023 3.3100000000000023 -2.6200000000000045 5.6200000000000045 -5 8 C-5.3300000000000125 6.680000000000007 -5.659999999999997 5.359999999999999 -6 4 C-5.381249999999994 3.711250000000007 -4.762499999999989 3.4224999999999994 -4.125 3.125 C-1.8667423497454934 2.062799582303853 -1.8667423497454934 2.062799582303853 0 0 Z " fill="#8CC152" transform="translate(176,66)"/>
<path d="M0 0 C0.9900000000000091 0.6599999999999966 1.9799999999999898 1.3200000000000003 3 2 C1.3499999999999943 3.3200000000000003 -0.30000000000001137 4.640000000000001 -2 6 C-2.3300000000000125 4.68 -2.6599999999999966 3.3599999999999994 -3 2 C-2.009999999999991 1.3400000000000034 -1.0200000000000102 0.6799999999999997 0 0 Z " fill="#EDF8ED" transform="translate(149,57)"/>
<path d="M0 0 C0.9900000000000091 0.3300000000000125 1.9799999999999898 0.6599999999999966 3 1 C2.3812499999999943 1.5774999999999864 1.7624999999999886 2.155000000000001 1.125 2.75 C-0.8134705296437801 4.802498207858122 -1.9001424923964407 6.433665815591695 -3 9 C-3.369230769230768 3.461538461538453 -3.369230769230768 3.461538461538453 -1.5 1.125 C-1.0049999999999955 0.7537499999999966 -0.5099999999999909 0.3824999999999932 0 0 Z " fill="#DFEFE0" transform="translate(146,179)"/>
<path d="M0 0 C0.6875 1.6875 0.6875 1.6875 1 4 C-0.3125 6.75 -0.3125 6.75 -2 9 C-2.6599999999999966 9 -3.319999999999993 9 -4 9 C-2.8010030163706716 5.916864899238874 -1.5229952261395 2.937205078983311 0 0 Z " fill="#82B751" transform="translate(96,158)"/>
<path d="M0 0 C0.6599999999999966 0.3299999999999983 1.3199999999999932 0.6599999999999966 2 1 C0.6301649726083838 4.1611577555191275 0.010936204027018448 4.992709197315321 -3 7 C-3.3300000000000125 5.680000000000007 -3.6599999999999966 4.359999999999999 -4 3 C-3.009999999999991 3 -2.0200000000000102 3 -1 3 C-0.6699999999999875 2.010000000000005 -0.3400000000000034 1.019999999999996 0 0 Z " fill="#7FB54A" transform="translate(155,85)"/>
<path d="M0 0 C0.9900000000000091 0.3299999999999983 1.9799999999999898 0.6599999999999966 3 1 C-1.625 5.875 -1.625 5.875 -5 7 C-5 6.010000000000005 -5 5.019999999999996 -5 4 C-2.6875 1.75 -2.6875 1.75 0 0 Z " fill="#8BC54E" transform="translate(140,83)"/>
<path d="M0 0 C2.6400000000000006 1.9799999999999969 5.280000000000001 3.960000000000001 8 6 C7.670000000000002 6.659999999999997 7.340000000000003 7.32 7 8 C5 8 5 8 2.375 5.6875 C0 3 0 3 0 0 Z " fill="#88BC4F" transform="translate(80,56)"/>
<path d="M0 0 C0.6599999999999966 0.3300000000000125 1.3199999999999932 0.6599999999999966 2 1 C2 1.990000000000009 2 2.9799999999999898 2 4 C-0.5 5.6875 -0.5 5.6875 -3 7 C-3.3300000000000125 6.009999999999991 -3.6599999999999966 5.02000000000001 -4 4 C-2.680000000000007 2.680000000000007 -1.3600000000000136 1.3600000000000136 0 0 Z " fill="#DFEBDC" transform="translate(141,165)"/>
<path d="M0 0 C2.969999999999999 0.49499999999999744 2.969999999999999 0.49499999999999744 6 1 C5.670000000000002 1.6599999999999966 5.340000000000003 2.3200000000000003 5 3 C1.9375 3.625 1.9375 3.625 -1 4 C-0.6700000000000017 2.6799999999999997 -0.3400000000000034 1.3599999999999994 0 0 Z " fill="#E7F5E9" transform="translate(43,51)"/>
</svg>